<svg width="224" height="146" xmlns="http://www.w3.org/2000/svg" xmlns:xlink="http://www.w3.org/1999/xlink" overflow="hidden"><defs><clipPath id="clip0"><rect x="829" y="39" width="224" height="146"/></clipPath><clipPath id="clip1"><rect x="829" y="40" width="223" height="145"/></clipPath><clipPath id="clip2"><rect x="829" y="40" width="223" height="146"/></clipPath><clipPath id="clip3"><rect x="829" y="2" width="223" height="224"/></clipPath><clipPath id="clip4"><rect x="829" y="2" width="223" height="224"/></clipPath><clipPath id="clip5"><rect x="856" y="51" width="168" height="125"/></clipPath><clipPath id="clip6"><rect x="856" y="51" width="168" height="125"/></clipPath><clipPath id="clip7"><rect x="856" y="51" width="168" height="125"/></clipPath><clipPath id="clip8"><rect x="856" y="51" width="168" height="125"/></clipPath></defs><g clip-path="url(#clip0)" transform="translate(-829 -39)"><g clip-path="url(#clip1)"><g clip-path="url(#clip2)"><g clip-path="url(#clip3)"><g clip-path="url(#clip4)"><path d="M214.972 101.391 436.188 101.391 436.188 322.607 214.972 322.607Z" stroke="#FFFFFF" stroke-width="0.792887" stroke-miterlimit="8" fill="#FFFFFF" transform="matrix(1 0 0 1.00179 614.92 -98.1559)"/><g clip-path="url(#clip5)"><g clip-path="url(#clip6)"><g clip-path="url(#clip7)"><g clip-path="url(#clip8)"><path d="M82.8719 16.6768C87.4834 16.6768 91.2103 12.9501 91.2103 8.33842 91.2103 3.72667 87.4834 0 82.8719 0 78.3068 0 74.5335 3.72667 74.5335 8.33842 74.5335 12.9501 78.3068 16.6768 82.8719 16.6768ZM81.5672 2.09625C81.9866 2.00309 82.4525 1.9565 82.8719 1.9565 86.4123 1.9565 89.2539 4.84467 89.2539 8.33842 89.2539 8.80422 89.2069 9.2235 89.1139 9.64277 88.6481 9.73594 88.2287 9.78253 87.7628 9.78253 84.2224 9.78253 81.3814 6.89431 81.3814 3.40058 81.4278 2.98133 81.4743 2.5155 81.5672 2.09625ZM79.4715 2.93475C79.4715 3.0745 79.4715 3.26083 79.4715 3.40058 79.4715 8.01232 83.1977 11.739 87.8093 11.739 87.9493 11.739 88.1357 11.739 88.2751 11.739 87.1576 13.5092 85.1541 14.7203 82.8719 14.7203 79.3315 14.7203 76.4898 11.8322 76.4898 8.33842 76.4898 6.05583 77.701 4.05275 79.4715 2.93475ZM58.0428 34.1922 41.4126 29.7202C41.2262 30.3258 41.0399 30.9779 40.9001 31.5835L57.5304 36.0555C57.6702 35.4034 57.8565 34.7977 58.0428 34.1922ZM108.259 36.0555 124.89 31.5835C124.75 30.9313 124.564 30.3258 124.378 29.7202L107.747 34.1922C107.934 34.7977 108.12 35.4034 108.259 36.0555ZM108.865 40.8536C108.912 41.5058 108.912 42.1579 108.865 42.8101L126.055 42.8101C126.055 42.1579 126.055 41.5058 126.055 40.8536L108.865 40.8536ZM107.747 49.5181 124.378 53.9901C124.564 53.3845 124.75 52.7323 124.89 52.1268L108.259 47.6548C108.12 48.2603 107.934 48.8659 107.747 49.5181ZM96.7536 44.5337 88.4616 44.5337C87.5299 44.5337 86.6452 44.161 85.9464 43.5088L85.8994 43.4623 84.2695 41.8319 85.9929 40.1082C86.6452 39.5027 87.5299 39.13 88.4616 39.13L96.7536 39.13C98.2441 39.13 99.6417 38.571 100.713 37.4996L119.44 18.7731C119.067 18.2141 118.741 17.6551 118.322 17.1426L114.828 20.6364C114.129 21.3351 113.244 21.7078 112.266 21.7078L104.44 21.7078 114.129 12.0185C113.896 11.7856 113.71 11.5527 113.477 11.3197 113.244 11.0868 113.011 10.8539 112.778 10.6676L103.089 20.3569 103.089 12.4843C103.089 11.5061 103.461 10.621 104.16 9.92223L107.654 6.42851C107.095 6.05583 106.582 5.68317 106.024 5.3105L87.297 24.037C86.2258 25.1084 85.6665 26.5059 85.6665 27.9966L85.6665 36.2884C85.6665 37.2201 85.2941 38.1052 84.6418 38.8039L84.5953 38.8505 82.9648 40.4809 81.3343 38.8505 81.2878 38.8039C80.6355 38.1052 80.2632 37.2667 80.2632 36.2884L80.2632 27.95C80.2632 26.4593 79.7038 25.0618 78.6327 23.9904L59.9059 5.26392C59.3472 5.63658 58.7882 5.96265 58.2758 6.38193L61.7694 9.87564C62.4682 10.5744 62.8411 11.4595 62.8411 12.4378L62.8411 20.2637 53.1516 10.5744C52.9187 10.8074 52.6858 10.9936 52.4528 11.2266 52.2199 11.4595 51.987 11.6924 51.8007 11.9253L61.49 21.6147 53.664 21.6147C52.6858 21.6147 51.8007 21.242 51.1019 20.5432L47.6082 17.0495C47.2355 17.6085 46.8629 18.1209 46.4902 18.6799L65.2169 37.4064C66.288 38.4778 67.6856 39.0368 69.1761 39.0368L77.3286 39.0368C78.2598 39.0368 79.145 39.4095 79.8438 40.0617L79.8903 40.1082 81.5208 41.7387 79.8903 43.3691 79.8438 43.4157C79.145 44.0678 78.3068 44.4405 77.3286 44.4405L69.0367 44.4405C67.5456 44.4405 66.1486 44.9995 65.0769 46.0709L46.3504 64.7975C46.7231 65.3563 47.0491 65.9156 47.4684 66.428L50.9622 62.934C51.6609 62.2352 52.546 61.8629 53.5242 61.8629L61.397 61.8629 51.7075 71.5518C51.9404 71.7848 52.1268 72.0177 52.3596 72.2506 52.5926 72.4836 52.8255 72.7165 53.0584 72.903L62.7476 63.2134 62.7476 71.0395C62.7476 72.0177 62.3752 72.903 61.6764 73.6017L58.1826 77.0957C58.7416 77.468 59.254 77.841 59.813 78.2133L78.5397 59.4869C79.6109 58.4155 80.1697 57.018 80.1697 55.5273L80.1697 47.2355C80.1697 46.3038 80.5426 45.4653 81.1484 44.7666L82.8719 43.043 84.5024 44.6734 84.5489 44.72C85.2012 45.4188 85.5735 46.2572 85.5735 47.2355L85.5735 55.5273C85.5735 57.018 86.1323 58.4155 87.204 59.4869L105.931 78.2133C106.49 77.841 107.048 77.5145 107.561 77.0957L104.067 73.6017C103.369 72.903 102.996 72.0177 102.996 71.0395L102.996 63.2134 112.685 72.903C112.918 72.67 113.151 72.4836 113.384 72.2506 113.617 72.0177 113.85 71.7848 114.036 71.5518L104.347 61.8629 112.173 61.8629C113.151 61.8629 114.036 62.2352 114.734 62.934L118.228 66.428C118.601 65.8686 118.974 65.3563 119.347 64.7975L100.62 46.0709C99.6417 45.1392 98.2441 44.5337 96.7536 44.5337ZM103.974 23.6177 111.8 23.6177 107.048 28.3693C106.35 29.068 105.465 29.4406 104.486 29.4406L96.6606 29.4406 101.412 24.6892C102.111 23.9904 102.996 23.6177 103.974 23.6177ZM95.3095 20.2171C95.3095 19.2389 95.6824 18.3538 96.3806 17.6551L101.086 12.9036 101.086 20.7296C101.086 21.7078 100.713 22.5929 100.015 23.2916L99.1758 24.1302 95.3095 27.9966 95.3095 20.2171ZM96.2412 31.3506 104.067 31.3506 99.3158 36.1021C98.617 36.8008 97.7318 37.1735 96.7536 37.1735L88.9275 37.1735 93.679 32.422C94.3778 31.7232 95.2631 31.3506 96.2412 31.3506ZM87.5299 27.95C87.5299 26.9718 87.9028 26.0867 88.6016 25.3879L93.3531 20.6364 93.3531 28.4624C93.3531 29.4406 92.9802 30.3258 92.2814 31.0245L91.4432 31.863 87.5299 35.776 87.5299 27.95ZM64.6575 12.9036 69.409 17.6551C70.1078 18.3538 70.4807 19.2389 70.4807 20.2171L70.4807 28.0432 66.6144 24.1768 65.7757 23.3382C65.0769 22.6395 64.7045 21.7544 64.7045 20.7762L64.6575 12.9036ZM58.695 28.3693 53.9435 23.6177 61.7694 23.6177C62.7476 23.6177 63.6328 23.9904 64.3316 24.6892L65.1698 25.5277 69.0367 29.3941 61.2106 29.3941C60.2789 29.4406 59.3937 29.068 58.695 28.3693ZM68.9902 37.1735C68.0114 37.1735 67.1268 36.8008 66.428 36.1021L61.6764 31.3506 69.5025 31.3506C70.4807 31.3506 71.3654 31.7232 72.0642 32.422L72.903 33.2605 76.8157 37.1735 68.9902 37.1735ZM78.2133 35.8226 74.3005 31.9096 73.4617 31.0711C72.763 30.3724 72.3906 29.4872 72.3906 28.509L72.3906 20.683 77.1422 25.4345C77.841 26.1333 78.2133 27.0183 78.2133 27.9966L78.2133 35.8226 78.2133 35.8226ZM61.7694 60.0459 53.9435 60.0459 58.695 55.2944C59.3937 54.5957 60.2789 54.223 61.257 54.223L69.1296 54.223 65.2633 58.0894 64.4245 58.9279C63.6793 59.673 62.7476 60.0459 61.7694 60.0459ZM70.4807 63.4928C70.4807 64.4716 70.1078 65.3563 69.409 66.055L64.6575 70.8066 64.6575 62.9805C64.6575 62.0023 65.0304 61.1171 65.7292 60.4188L70.4807 55.6671 70.4807 63.4928ZM69.549 52.3131 61.7229 52.3131 66.4744 47.5616C67.1732 46.8629 68.0585 46.4902 69.0367 46.4902L76.8628 46.4902 72.9494 50.4032 72.1112 51.2416C71.4124 51.9404 70.4807 52.3131 69.549 52.3131ZM78.2133 55.7137C78.2133 56.6919 77.841 57.577 77.1422 58.2758L72.3906 63.0276 72.3906 55.2013C72.3906 54.223 72.763 53.3379 73.4617 52.6392L78.2133 47.8877 78.2133 55.7137ZM93.3531 63.0276 88.6016 58.2758C87.9028 57.577 87.5299 56.6919 87.5299 55.7137L87.5299 47.8877 91.4432 51.8007 92.2814 52.6392C92.9802 53.3379 93.3531 54.223 93.3531 55.2013L93.3531 63.0276ZM101.086 70.7601 96.3342 66.0086C95.6354 65.3098 95.2631 64.4245 95.2631 63.4463L95.2631 55.6205 99.1293 59.4869 99.9681 60.3253C100.666 61.0241 101.039 61.9094 101.039 62.8876L101.086 70.7601ZM107.095 55.2944 111.846 60.0459 104.021 60.0459C103.042 60.0459 102.157 59.673 101.459 58.9745L100.62 58.136 96.7536 54.2696 104.58 54.2696C105.465 54.2696 106.396 54.6422 107.095 55.2944ZM96.2412 52.3131C95.2631 52.3131 94.3778 51.9404 93.679 51.2416L92.8408 50.4032 88.9275 46.4902 96.7536 46.4902C97.7318 46.4902 98.617 46.8629 99.3158 47.5616L104.067 52.3131 96.2412 52.3131ZM56.8783 40.8536 39.689 40.8536C39.689 41.5058 39.689 42.1579 39.689 42.8101L56.8783 42.8101C56.8783 42.1579 56.8783 41.5058 56.8783 40.8536ZM57.5304 47.6082 40.9001 52.0802C41.0399 52.7323 41.2262 53.3379 41.4126 53.9435L58.0428 49.4715C57.8565 48.8659 57.6702 48.2603 57.5304 47.6082ZM83.7565 68.5708 83.6171 68.5243 83.6171 66.3815 81.6608 66.3815 81.6608 68.5243 81.5208 68.5243 81.5208 68.5708C77.0486 68.8967 74.347 71.2724 74.0211 75.1858L73.9276 76.3034 75.0458 76.2104C75.0458 76.2104 75.1387 76.2104 75.1858 76.2104 75.0923 78.0268 75.6981 80.0303 76.9557 82.1266L77.701 83.3842 78.4927 82.266C79.7509 84.3159 81.9402 85.6665 82.0331 85.76L82.5454 86.0858 83.0583 85.76C83.1513 85.7135 85.3406 84.3159 86.5982 82.266L87.437 83.3842 88.1822 82.1266C89.4398 80.0303 90.0457 78.0268 89.9521 76.2104 89.9992 76.2104 90.0457 76.2104 90.0457 76.2104L91.1638 76.3034 91.0703 75.1858C90.9309 71.226 88.1822 68.8967 83.7565 68.5708ZM76.2104 74.0676C76.9092 71.5983 79.145 70.7136 81.2878 70.5272 81.1484 70.8531 80.962 71.2724 80.6826 71.6918 79.8438 73.0429 77.701 73.7882 76.2104 74.0676ZM79.6573 78.5862C79.0985 79.0056 78.5862 79.4244 78.0739 79.9367 77.3751 78.4462 77.0957 77.0957 77.2351 75.8375 78.2133 75.6046 79.3779 75.1858 80.4497 74.5335 80.6355 75.5117 81.0084 76.3498 81.4278 77.0486 80.8684 77.608 80.2632 78.1204 79.6573 78.5862ZM82.639 83.7101C81.9402 83.1977 80.6355 82.0796 79.9838 80.7755 80.2632 80.5426 80.5426 80.3097 80.822 80.0767 81.4278 79.6109 82.0331 79.0985 82.639 78.5397 83.2442 79.145 83.8501 79.6109 84.4553 80.0767 84.7353 80.3097 85.0147 80.4961 85.2941 80.729 84.6418 82.1266 83.3377 83.1977 82.639 83.7101ZM87.2505 79.9367C86.7382 79.4715 86.1794 79.0056 85.6665 78.5862 83.8965 77.1886 82.2196 75.884 82.2196 73.0894 82.2196 72.9959 82.2196 72.903 82.2196 72.81 82.266 72.763 82.3125 72.7165 82.3596 72.67 82.4525 72.4836 82.5454 72.3442 82.639 72.2042 82.7319 72.3442 82.8254 72.53 82.9184 72.67 84.083 74.5335 86.4123 75.4181 88.0893 75.8375 88.2287 77.0957 87.9493 78.4462 87.2505 79.9367ZM84.5489 71.6454C84.2695 71.226 84.083 70.8531 83.943 70.4807 86.1323 70.7136 88.3222 71.5983 89.021 74.0676 87.5299 73.7882 85.4341 73.0429 84.5489 71.6454Z" fill="#333333" transform="matrix(1.00404 0 0 1 856.949 51.9679)"/><path d="M70.8066 123.912 68.3379 123.912 68.3379 118.042 70.7136 118.042C71.8783 118.042 72.53 118.694 72.53 119.672 72.53 120.325 72.1112 120.744 71.7848 120.884 72.1577 121.07 72.5771 121.443 72.5771 122.188 72.6236 123.306 71.8783 123.912 70.8066 123.912ZM70.6201 119.067 69.5025 119.067 69.5025 120.418 70.6201 120.418C71.086 120.418 71.3654 120.138 71.3654 119.719 71.3654 119.3 71.133 119.067 70.6201 119.067ZM70.7136 121.443 69.5025 121.443 69.5025 122.887 70.7136 122.887C71.226 122.887 71.5054 122.561 71.5054 122.142 71.4589 121.769 71.226 121.443 70.7136 121.443Z" fill="#333333" transform="matrix(1.00404 0 0 1 856.949 51.9679)"/><path d="M76.2569 123.912 76.2569 118.042 80.1232 118.042 80.1232 119.067 77.3751 119.067 77.3751 120.465 79.7038 120.465 79.7038 121.489 77.3751 121.489 77.3751 122.933 80.1232 122.933 80.1232 123.958 76.2569 123.958 76.2569 123.912Z" fill="#333333" transform="matrix(1.00404 0 0 1 856.949 51.9679)"/><path d="M83.7565 123.912 83.7565 118.042 87.6234 118.042 87.6234 119.067 84.8747 119.067 84.8747 120.465 87.204 120.465 87.204 121.489 84.8747 121.489 84.8747 122.933 87.6234 122.933 87.6234 123.958 83.7565 123.958 83.7565 123.912Z" fill="#333333" transform="matrix(1.00404 0 0 1 856.949 51.9679)"/><path d="M94.3778 123.912 93.2131 121.582 92.375 121.582 92.375 123.912 91.2103 123.912 91.2103 118.042 93.5396 118.042C94.7507 118.042 95.4495 118.881 95.4495 119.859 95.4495 120.698 94.9366 121.21 94.3778 121.396L95.6824 123.912 94.3778 123.912ZM93.4925 119.067 92.4214 119.067 92.4214 120.604 93.4925 120.604C94.0049 120.604 94.3313 120.278 94.3313 119.812 94.3313 119.393 93.9584 119.067 93.4925 119.067Z" fill="#333333" transform="matrix(1.00404 0 0 1 856.949 51.9679)"/><path d="M160.619 104.067 160.992 104.067C161.225 102.949 163.321 102.111 165.79 102.017L165.79 101.598C163.321 101.505 161.225 100.713 160.992 99.5487L160.619 99.5487C160.386 100.713 158.29 101.505 155.821 101.598L155.821 102.017C158.29 102.111 160.386 102.949 160.619 104.067ZM143.617 108.632 146.272 108.632C146.458 108.632 146.598 108.492 146.598 108.307L146.598 103.229C146.598 103.089 146.644 102.949 146.738 102.809L147.11 102.39C147.25 102.25 147.343 102.25 147.483 102.25L147.762 102.25C147.902 102.25 147.949 102.25 148.042 102.111 148.135 102.017 148.135 101.924 148.088 101.784L148.042 101.645C147.995 101.505 147.995 101.365 148.088 101.272L153.259 95.3095C153.446 95.0766 153.353 94.9366 153.073 94.9366L149.998 94.9366C149.812 94.9366 149.672 95.0301 149.533 95.1695L145.294 100.248C145.154 100.387 144.967 100.433 144.828 100.248L140.821 95.1695C140.681 94.9837 140.542 94.9366 140.356 94.9366L137.188 94.9366C136.909 94.9366 136.815 95.0766 137.002 95.3095L141.94 101.226C142.079 101.365 142.079 101.505 142.033 101.645L141.986 101.784C141.94 101.924 141.94 102.017 142.033 102.111 142.125 102.25 142.173 102.25 142.312 102.25L142.591 102.25C142.731 102.25 142.824 102.25 142.918 102.343L143.29 102.809C143.384 102.949 143.43 103.042 143.43 103.229L143.43 108.307C143.337 108.539 143.43 108.632 143.617 108.632ZM122.142 100.946C121.955 100.946 121.815 100.806 121.815 100.62L121.815 97.6388C121.815 97.4524 121.955 97.3124 122.142 97.3124L126.986 97.3124C128.943 97.3124 129.828 97.9647 129.828 99.1293 129.828 100.34 128.943 100.946 126.986 100.946L122.142 100.946 122.142 100.946ZM133.554 108.772 134.02 108.772C134.114 108.772 134.206 108.725 134.206 108.679 134.206 108.632 134.206 108.586 134.067 108.492 132.576 107.608 131.179 106.21 129.595 104.254L128.896 103.369C128.756 103.182 128.803 102.996 129.083 102.949 131.784 102.39 133.135 101.319 133.135 99.1293 133.135 96.7536 130.993 94.9366 126.846 94.9366L118.881 94.9366C118.694 94.9366 118.555 95.0766 118.555 95.2631L118.555 100.76C118.555 100.899 118.461 100.993 118.368 101.086L118.089 101.272C117.995 101.365 117.949 101.412 117.949 101.552 117.949 101.692 117.995 101.738 118.089 101.831L118.368 102.017C118.508 102.111 118.555 102.25 118.555 102.343L118.555 108.307C118.555 108.492 118.694 108.632 118.881 108.632L121.489 108.632C121.676 108.632 121.815 108.492 121.815 108.307L121.815 103.601C121.815 103.415 121.955 103.275 122.142 103.275L124.75 103.275C124.983 103.275 125.216 103.322 125.356 103.508L127.918 106.582C129.455 108.492 131.132 108.772 133.554 108.772ZM102.903 106.49C99.5023 106.49 97.2659 104.673 97.2659 101.878 97.2659 98.9893 99.5487 97.0794 102.903 97.0794 106.35 97.0794 108.632 98.9893 108.539 101.878 108.446 104.673 106.21 106.49 102.903 106.49ZM81.1949 108.632 83.8501 108.632C84.0365 108.632 84.1759 108.492 84.1759 108.307L84.1759 102.343C84.1759 102.204 84.2695 102.111 84.3624 102.017L84.6418 101.831C84.7353 101.738 84.7818 101.692 84.7818 101.552 84.7818 101.412 84.7353 101.365 84.6418 101.272L84.3624 101.086C84.2224 100.993 84.1759 100.853 84.1759 100.76L84.1759 97.6388C84.1759 97.4524 84.3159 97.3124 84.5024 97.3124L89.8127 97.3124C90.0457 97.3124 90.1386 97.173 90.0921 96.94L89.5798 95.2166C89.5333 95.0301 89.3933 94.9366 89.2069 94.9366L75.791 94.9366C75.6046 94.9366 75.4652 95.0301 75.4181 95.2166L74.9058 96.94C74.8129 97.173 74.9529 97.3124 75.1858 97.3124L80.4961 97.3124C80.6826 97.3124 80.822 97.4524 80.822 97.6388L80.822 100.76C80.822 100.899 80.729 100.993 80.6355 101.086L80.3561 101.272C80.2632 101.365 80.2167 101.412 80.2167 101.552 80.2167 101.692 80.2632 101.738 80.3561 101.831L80.6355 102.017C80.7755 102.111 80.822 102.25 80.822 102.343L80.822 108.307C80.8684 108.539 81.0084 108.632 81.1949 108.632ZM64.5181 108.912C66.9403 108.912 69.2231 108.353 70.8066 107.188 70.9466 107.095 70.9466 106.955 70.8066 106.769L69.6419 105.325C69.5025 105.185 69.3625 105.138 69.1761 105.232 68.0114 106.024 66.428 106.396 64.7045 106.396 60.9312 106.396 58.7882 104.626 58.7416 101.831 58.695 98.9429 60.8841 97.0794 64.7045 97.0794 66.3344 97.0794 67.872 97.5453 68.9431 98.2906 69.0831 98.3841 69.2696 98.3841 69.409 98.2441L70.6201 96.8C70.7601 96.6136 70.7601 96.4742 70.5737 96.3342 68.9902 95.2166 66.8003 94.6107 64.751 94.6107 59.7665 94.6107 56.2727 97.1265 55.5739 100.573 55.5273 100.76 55.4807 100.899 55.2944 100.993L55.0149 101.179C54.9218 101.272 54.8752 101.319 54.8752 101.459 54.8752 101.598 54.9218 101.645 55.0149 101.738L55.2944 101.924C55.4341 102.017 55.4807 102.157 55.5273 102.343 55.8068 106.536 59.0677 108.912 64.5181 108.912ZM39.2232 103.508C38.9902 103.508 38.8505 103.369 38.9902 103.136L41.8319 98.0582C41.9716 97.8253 42.1579 97.8253 42.2511 98.0582L45.0461 103.136C45.1858 103.369 45.0461 103.461 44.8132 103.461L39.2232 103.461 39.2232 103.508ZM32.9344 108.632 35.6828 108.632C35.8692 108.632 35.9623 108.539 36.0555 108.399L37.2667 106.21C37.3598 106.07 37.4996 105.931 37.6859 105.931L46.3038 105.931C46.4902 105.931 46.6299 106.024 46.7231 106.21L47.9343 108.399C48.0274 108.539 48.1206 108.632 48.3069 108.632L51.1951 108.632C51.428 108.632 51.5212 108.492 51.428 108.259L48.074 102.483C47.9809 102.343 47.9809 102.157 48.0274 102.017L48.1671 101.692C48.2137 101.552 48.1671 101.459 48.1206 101.365 48.0274 101.272 47.9809 101.226 47.8411 101.226L47.5616 101.226C47.4218 101.226 47.3287 101.226 47.2355 101.039L43.8349 95.1695C43.7418 95.0301 43.6486 94.9366 43.4623 94.9366L40.6673 94.9366C40.4809 94.9366 40.3878 95.0301 40.2946 95.1695L36.8474 101.086C36.7542 101.226 36.6611 101.226 36.5214 101.226L36.2418 101.226C36.1021 101.226 36.0555 101.272 35.9623 101.365 35.9157 101.459 35.8692 101.552 35.9157 101.692L36.0555 102.017C36.1021 102.157 36.1487 102.297 36.0555 102.39L32.7015 108.213C32.6083 108.492 32.6549 108.632 32.9344 108.632ZM17.9346 108.632 20.5898 108.632C20.7762 108.632 20.9159 108.492 20.9159 108.307L20.9159 103.415C20.9159 103.229 21.0557 103.089 21.242 103.089L25.9935 103.089C26.1799 103.089 26.3196 102.996 26.3661 102.809L26.9252 100.993C27.0183 100.76 26.8786 100.62 26.6457 100.62L21.242 100.62C21.0557 100.62 20.9159 100.48 20.9159 100.294L20.9159 97.7318C20.9159 97.5453 21.0557 97.4059 21.242 97.4059L30.6518 97.4059C30.8847 97.4059 30.9779 97.2659 30.9313 97.033L30.4655 95.2166C30.4189 95.0301 30.2792 94.9366 30.0928 94.9366L17.9346 94.9366C17.7483 94.9366 17.6085 95.0766 17.6085 95.2631L17.6085 100.76C17.6085 100.899 17.5153 100.993 17.4222 101.086L17.1426 101.272C17.0495 101.365 17.0029 101.412 17.0029 101.552 17.0029 101.692 17.0495 101.738 17.1426 101.831L17.4222 102.017C17.5619 102.111 17.6085 102.25 17.6085 102.343L17.6085 108.307C17.6085 108.539 17.7483 108.632 17.9346 108.632ZM4.79809 104.067 5.17075 104.067C5.40367 102.949 7.49993 102.111 9.96881 102.017L9.96881 101.598C7.49993 101.505 5.40367 100.713 5.17075 99.5487L4.79809 99.5487C4.56517 100.713 2.46892 101.505 0 101.598L0 102.017C2.46892 102.111 4.56517 102.949 4.79809 104.067ZM102.903 108.912C107.701 108.912 111.428 106.536 111.846 102.483 111.846 102.297 111.94 102.157 112.079 102.064L112.359 101.878C112.452 101.784 112.499 101.738 112.499 101.598 112.499 101.459 112.452 101.412 112.359 101.319L112.079 101.132C111.94 101.039 111.846 100.946 111.8 100.76 111.241 97.3124 107.794 94.7507 102.949 94.7507 98.1976 94.7507 94.7972 97.1265 94.0519 100.76 94.0049 100.946 93.9119 101.086 93.819 101.132L93.5396 101.319C93.4461 101.412 93.3996 101.459 93.3996 101.598 93.3996 101.738 93.4461 101.784 93.5396 101.878L93.819 102.064C93.9584 102.157 94.0049 102.343 94.0519 102.483 94.3778 106.676 97.9647 108.912 102.903 108.912Z" fill="#333333" transform="matrix(1.00404 0 0 1 856.949 51.9679)"/></g></g></g></g></g></g></g></g></g></svg>