<svg width="375" height="374" xmlns="http://www.w3.org/2000/svg" xmlns:xlink="http://www.w3.org/1999/xlink" overflow="hidden"><defs><clipPath id="clip0"><rect x="360" y="169" width="375" height="374"/></clipPath><clipPath id="clip1"><rect x="407" y="252" width="280" height="208"/></clipPath><clipPath id="clip2"><rect x="407" y="252" width="280" height="208"/></clipPath><clipPath id="clip3"><rect x="407" y="252" width="280" height="208"/></clipPath><clipPath id="clip4"><rect x="406" y="252" width="281" height="208"/></clipPath></defs><g clip-path="url(#clip0)" transform="translate(-360 -169)"><rect x="361.5" y="170.5" width="372" height="372" stroke="#FFFFFF" stroke-width="1.33333" stroke-miterlimit="8" fill="#FFFFFF"/><g clip-path="url(#clip1)"><g clip-path="url(#clip2)"><g clip-path="url(#clip3)"><g clip-path="url(#clip4)"><path d="M139.11 27.994C146.851 27.994 153.107 21.7383 153.107 13.997 153.107 6.25564 146.851 0 139.11 0 131.447 0 125.113 6.25564 125.113 13.997 125.113 21.7383 131.447 27.994 139.11 27.994ZM136.92 3.5188C137.624 3.36241 138.406 3.28421 139.11 3.28421 145.053 3.28421 149.823 8.13233 149.823 13.997 149.823 14.7789 149.744 15.4827 149.588 16.1865 148.806 16.3429 148.102 16.4211 147.32 16.4211 141.377 16.4211 136.608 11.5729 136.608 5.70827 136.686 5.00451 136.764 4.22256 136.92 3.5188ZM133.402 4.92632C133.402 5.1609 133.402 5.47368 133.402 5.70827 133.402 13.4496 139.657 19.7053 147.398 19.7053 147.633 19.7053 147.946 19.7053 148.18 19.7053 146.304 22.6767 142.941 24.7098 139.11 24.7098 133.167 24.7098 128.397 19.8617 128.397 13.997 128.397 10.1654 130.43 6.80301 133.402 4.92632ZM97.4316 57.3955 69.5158 49.8887C69.203 50.9053 68.8902 52 68.6556 53.0165L96.5714 60.5233C96.806 59.4286 97.1188 58.412 97.4316 57.3955ZM181.726 60.5233 209.642 53.0165C209.408 51.9218 209.095 50.9053 208.782 49.8887L180.866 57.3955C181.179 58.412 181.492 59.4286 181.726 60.5233ZM182.743 68.5774C182.821 69.6722 182.821 70.7669 182.743 71.8617L211.597 71.8617C211.597 70.7669 211.597 69.6722 211.597 68.5774L182.743 68.5774ZM180.866 83.1218 208.782 90.6286C209.095 89.612 209.408 88.5173 209.642 87.5008L181.726 79.994C181.492 81.0105 181.179 82.0271 180.866 83.1218ZM162.412 74.7549 148.493 74.7549C146.929 74.7549 145.444 74.1293 144.271 73.0346L144.192 72.9564 141.456 70.2196 144.349 67.3263C145.444 66.3098 146.929 65.6842 148.493 65.6842L162.412 65.6842C164.914 65.6842 167.26 64.7459 169.059 62.9474L200.493 31.5128C199.868 30.5744 199.32 29.6361 198.617 28.7759L192.752 34.6406C191.579 35.8135 190.093 36.4391 188.451 36.4391L175.314 36.4391 191.579 20.1744C191.188 19.7835 190.875 19.3925 190.484 19.0015 190.093 18.6105 189.702 18.2195 189.311 17.9068L173.047 34.1714 173.047 20.9564C173.047 19.3143 173.672 17.8286 174.845 16.6556L180.71 10.791C179.771 10.1654 178.911 9.53985 177.973 8.91429L146.538 40.3489C144.74 42.1474 143.801 44.4932 143.801 46.9955L143.801 60.9143C143.801 62.4782 143.176 63.9639 142.081 65.1368L142.003 65.215 139.266 67.9519 136.529 65.215 136.451 65.1368C135.356 63.9639 134.731 62.5564 134.731 60.9143L134.731 46.9173C134.731 44.415 133.792 42.0692 131.994 40.2707L100.559 8.83609C99.6211 9.46165 98.6827 10.009 97.8226 10.7128L103.687 16.5774C104.86 17.7504 105.486 19.2361 105.486 20.8782L105.486 34.015 89.2211 17.7504C88.8301 18.1414 88.4391 18.4541 88.0481 18.8451 87.6571 19.2361 87.2662 19.6271 86.9534 20.018L103.218 36.2827 90.0812 36.2827C88.4391 36.2827 86.9534 35.6571 85.7804 34.4842L79.9158 28.6195C79.2902 29.5579 78.6647 30.418 78.0391 31.3564L109.474 62.791C111.272 64.5895 113.618 65.5278 116.12 65.5278L129.805 65.5278C131.368 65.5278 132.854 66.1534 134.027 67.2481L134.105 67.3263 136.842 70.0632 134.105 72.8 134.027 72.8782C132.854 73.9729 131.447 74.5985 129.805 74.5985L115.886 74.5985C113.383 74.5985 111.038 75.5368 109.239 77.3353L77.8045 108.77C78.4301 109.708 78.9774 110.647 79.6812 111.507L85.5459 105.642C86.7188 104.469 88.2045 103.844 89.8466 103.844L103.062 103.844 86.797 120.108C87.188 120.499 87.5008 120.89 87.8917 121.281 88.2827 121.672 88.6737 122.063 89.0647 122.376L105.329 106.111 105.329 119.248C105.329 120.89 104.704 122.376 103.531 123.549L97.6662 129.414C98.6045 130.039 99.4647 130.665 100.403 131.29L131.838 99.8556C133.636 98.0571 134.574 95.7113 134.574 93.209L134.574 79.2902C134.574 77.7263 135.2 76.3188 136.217 75.1459L139.11 72.2526 141.847 74.9895 141.925 75.0677C143.02 76.2406 143.645 77.6481 143.645 79.2902L143.645 93.209C143.645 95.7113 144.583 98.0571 146.382 99.8556L177.817 131.29C178.755 130.665 179.693 130.117 180.553 129.414L174.689 123.549C173.516 122.376 172.89 120.89 172.89 119.248L172.89 106.111 189.155 122.376C189.546 121.985 189.937 121.672 190.328 121.281 190.719 120.89 191.11 120.499 191.423 120.108L175.158 103.844 188.295 103.844C189.937 103.844 191.423 104.469 192.595 105.642L198.46 111.507C199.086 110.568 199.711 109.708 200.337 108.77L168.902 77.3353C167.26 75.7714 164.914 74.7549 162.412 74.7549ZM174.532 39.6451 187.669 39.6451 179.693 47.6211C178.52 48.794 177.035 49.4195 175.392 49.4195L162.256 49.4195 170.232 41.4436C171.405 40.2707 172.89 39.6451 174.532 39.6451ZM159.988 33.9368C159.988 32.2947 160.614 30.809 161.786 29.6361L169.684 21.6602 169.684 34.797C169.684 36.4391 169.059 37.9248 167.886 39.0977L166.478 40.5053 159.988 46.9955 159.988 33.9368ZM161.552 52.6256 174.689 52.6256 166.713 60.6015C165.54 61.7744 164.054 62.4 162.412 62.4L149.275 62.4 157.251 54.4241C158.424 53.2511 159.91 52.6256 161.552 52.6256ZM146.929 46.9173C146.929 45.2752 147.555 43.7895 148.728 42.6165L156.704 34.6406 156.704 47.7774C156.704 49.4195 156.078 50.9053 154.905 52.0782L153.498 53.4857 146.929 60.0541 146.929 46.9173ZM108.535 21.6602 116.511 29.6361C117.684 30.809 118.31 32.2947 118.31 33.9368L118.31 47.0737 111.82 40.5835 110.412 39.1759C109.239 38.003 108.614 36.5173 108.614 34.8752L108.535 21.6602ZM98.5263 47.6211 90.5504 39.6451 103.687 39.6451C105.329 39.6451 106.815 40.2707 107.988 41.4436L109.395 42.8511 115.886 49.3414 102.749 49.3414C101.185 49.4195 99.6992 48.794 98.5263 47.6211ZM115.808 62.4C114.165 62.4 112.68 61.7744 111.507 60.6015L103.531 52.6256 116.668 52.6256C118.31 52.6256 119.795 53.2511 120.968 54.4241L122.376 55.8316 128.944 62.4 115.808 62.4ZM131.29 60.1323 124.722 53.5639 123.314 52.1564C122.141 50.9835 121.516 49.4977 121.516 47.8556L121.516 34.7188 129.492 42.6947C130.665 43.8677 131.29 45.3534 131.29 46.9955L131.29 60.1323 131.29 60.1323ZM103.687 100.794 90.5504 100.794 98.5263 92.818C99.6992 91.6451 101.185 91.0195 102.827 91.0195L116.042 91.0195 109.552 97.5098 108.144 98.9173C106.893 100.168 105.329 100.794 103.687 100.794ZM118.31 106.58C118.31 108.223 117.684 109.708 116.511 110.881L108.535 118.857 108.535 105.72C108.535 104.078 109.161 102.592 110.334 101.42L118.31 93.4436 118.31 106.58ZM116.746 87.8135 103.609 87.8135 111.585 79.8376C112.758 78.6647 114.244 78.0391 115.886 78.0391L129.023 78.0391 122.454 84.6075 121.047 86.015C119.874 87.188 118.31 87.8135 116.746 87.8135ZM131.29 93.5218C131.29 95.1639 130.665 96.6496 129.492 97.8226L121.516 105.799 121.516 92.6617C121.516 91.0195 122.141 89.5338 123.314 88.3609L131.29 80.385 131.29 93.5218ZM156.704 105.799 148.728 97.8226C147.555 96.6496 146.929 95.1639 146.929 93.5218L146.929 80.385 153.498 86.9534 154.905 88.3609C156.078 89.5338 156.704 91.0195 156.704 92.6617L156.704 105.799ZM169.684 118.779 161.708 110.803C160.535 109.63 159.91 108.144 159.91 106.502L159.91 93.3654 166.4 99.8556 167.808 101.263C168.98 102.436 169.606 103.922 169.606 105.564L169.684 118.779ZM179.771 92.818 187.747 100.794 174.611 100.794C172.968 100.794 171.483 100.168 170.31 98.9955L168.902 97.588 162.412 91.0977 175.549 91.0977C177.035 91.0977 178.598 91.7233 179.771 92.818ZM161.552 87.8135C159.91 87.8135 158.424 87.188 157.251 86.015L155.844 84.6075 149.275 78.0391 162.412 78.0391C164.054 78.0391 165.54 78.6647 166.713 79.8376L174.689 87.8135 161.552 87.8135ZM95.4767 68.5774 66.6226 68.5774C66.6226 69.6722 66.6226 70.7669 66.6226 71.8617L95.4767 71.8617C95.4767 70.7669 95.4767 69.6722 95.4767 68.5774ZM96.5714 79.9158 68.6556 87.4226C68.8902 88.5173 69.203 89.5338 69.5158 90.5504L97.4316 83.0436C97.1188 82.0271 96.806 81.0105 96.5714 79.9158ZM140.595 115.104 140.361 115.026 140.361 111.429 137.077 111.429 137.077 115.026 136.842 115.026 136.842 115.104C129.335 115.651 124.8 119.639 124.253 126.208L124.096 128.084 125.973 127.928C125.973 127.928 126.129 127.928 126.208 127.928 126.051 130.977 127.068 134.34 129.179 137.859L130.43 139.97 131.759 138.093C133.871 141.534 137.546 143.801 137.702 143.958L138.562 144.505 139.423 143.958C139.579 143.88 143.254 141.534 145.365 138.093L146.773 139.97 148.024 137.859C150.135 134.34 151.152 130.977 150.995 127.928 151.074 127.928 151.152 127.928 151.152 127.928L153.029 128.084 152.872 126.208C152.638 119.561 148.024 115.651 140.595 115.104ZM127.928 124.331C129.101 120.186 132.854 118.701 136.451 118.388 136.217 118.935 135.904 119.639 135.435 120.343 134.027 122.611 130.43 123.862 127.928 124.331ZM133.714 131.916C132.776 132.62 131.916 133.323 131.056 134.183 129.883 131.681 129.414 129.414 129.648 127.302 131.29 126.911 133.245 126.208 135.044 125.113 135.356 126.755 135.982 128.162 136.686 129.335 135.747 130.274 134.731 131.134 133.714 131.916ZM138.719 140.517C137.546 139.657 135.356 137.78 134.262 135.591 134.731 135.2 135.2 134.809 135.669 134.418 136.686 133.636 137.702 132.776 138.719 131.838 139.735 132.854 140.752 133.636 141.768 134.418 142.238 134.809 142.707 135.122 143.176 135.513 142.081 137.859 139.892 139.657 138.719 140.517ZM146.46 134.183C145.6 133.402 144.662 132.62 143.801 131.916 140.83 129.57 138.015 127.38 138.015 122.689 138.015 122.532 138.015 122.376 138.015 122.22 138.093 122.141 138.171 122.063 138.25 121.985 138.406 121.672 138.562 121.438 138.719 121.203 138.875 121.438 139.032 121.75 139.188 121.985 141.143 125.113 145.053 126.598 147.868 127.302 148.102 129.414 147.633 131.681 146.46 134.183ZM141.925 120.265C141.456 119.561 141.143 118.935 140.908 118.31 144.583 118.701 148.259 120.186 149.432 124.331 146.929 123.862 143.411 122.611 141.925 120.265Z" fill="#333333" transform="matrix(1.00583 0 0 1 407 252)"/><path d="M118.857 208 114.713 208 114.713 198.147 118.701 198.147C120.656 198.147 121.75 199.242 121.75 200.884 121.75 201.979 121.047 202.683 120.499 202.917 121.125 203.23 121.829 203.856 121.829 205.107 121.907 206.983 120.656 208 118.857 208ZM118.544 199.868 116.668 199.868 116.668 202.135 118.544 202.135C119.326 202.135 119.795 201.666 119.795 200.962 119.795 200.259 119.405 199.868 118.544 199.868ZM118.701 203.856 116.668 203.856 116.668 206.28 118.701 206.28C119.561 206.28 120.03 205.732 120.03 205.029 119.952 204.403 119.561 203.856 118.701 203.856Z" fill="#333333" transform="matrix(1.00583 0 0 1 407 252)"/><path d="M128.006 208 128.006 198.147 134.496 198.147 134.496 199.868 129.883 199.868 129.883 202.214 133.792 202.214 133.792 203.934 129.883 203.934 129.883 206.358 134.496 206.358 134.496 208.078 128.006 208.078 128.006 208Z" fill="#333333" transform="matrix(1.00583 0 0 1 407 252)"/><path d="M140.595 208 140.595 198.147 147.086 198.147 147.086 199.868 142.472 199.868 142.472 202.214 146.382 202.214 146.382 203.934 142.472 203.934 142.472 206.358 147.086 206.358 147.086 208.078 140.595 208.078 140.595 208Z" fill="#333333" transform="matrix(1.00583 0 0 1 407 252)"/><path d="M158.424 208 156.469 204.09 155.062 204.09 155.062 208 153.107 208 153.107 198.147 157.017 198.147C159.05 198.147 160.223 199.555 160.223 201.197 160.223 202.605 159.362 203.465 158.424 203.777L160.614 208 158.424 208ZM156.938 199.868 155.14 199.868 155.14 202.448 156.938 202.448C157.798 202.448 158.346 201.901 158.346 201.119 158.346 200.415 157.72 199.868 156.938 199.868Z" fill="#333333" transform="matrix(1.00583 0 0 1 407 252)"/><path d="M269.618 174.689 270.244 174.689C270.635 172.812 274.153 171.405 278.298 171.248L278.298 170.544C274.153 170.388 270.635 169.059 270.244 167.104L269.618 167.104C269.227 169.059 265.708 170.388 261.564 170.544L261.564 171.248C265.708 171.405 269.227 172.812 269.618 174.689ZM241.077 182.352 245.534 182.352C245.847 182.352 246.081 182.117 246.081 181.805L246.081 173.281C246.081 173.047 246.159 172.812 246.316 172.577L246.941 171.874C247.176 171.639 247.332 171.639 247.567 171.639L248.036 171.639C248.271 171.639 248.349 171.639 248.505 171.405 248.662 171.248 248.662 171.092 248.583 170.857L248.505 170.623C248.427 170.388 248.427 170.153 248.583 169.997L257.263 159.988C257.576 159.597 257.42 159.362 256.95 159.362L251.789 159.362C251.477 159.362 251.242 159.519 251.008 159.753L243.892 168.277C243.657 168.511 243.344 168.589 243.11 168.277L236.385 159.753C236.15 159.441 235.916 159.362 235.603 159.362L230.286 159.362C229.817 159.362 229.66 159.597 229.973 159.988L238.262 169.919C238.496 170.153 238.496 170.388 238.418 170.623L238.34 170.857C238.262 171.092 238.262 171.248 238.418 171.405 238.574 171.639 238.653 171.639 238.887 171.639L239.356 171.639C239.591 171.639 239.747 171.639 239.904 171.795L240.529 172.577C240.686 172.812 240.764 172.968 240.764 173.281L240.764 181.805C240.608 182.195 240.764 182.352 241.077 182.352ZM205.029 169.45C204.716 169.45 204.481 169.215 204.481 168.902L204.481 163.898C204.481 163.585 204.716 163.35 205.029 163.35L213.161 163.35C216.445 163.35 217.931 164.445 217.931 166.4 217.931 168.433 216.445 169.45 213.161 169.45L205.029 169.45 205.029 169.45ZM224.186 182.586 224.968 182.586C225.125 182.586 225.281 182.508 225.281 182.43 225.281 182.352 225.281 182.274 225.047 182.117 222.544 180.632 220.199 178.286 217.54 175.002L216.367 173.516C216.132 173.203 216.211 172.89 216.68 172.812 221.215 171.874 223.483 170.075 223.483 166.4 223.483 162.412 219.886 159.362 212.926 159.362L199.555 159.362C199.242 159.362 199.008 159.597 199.008 159.91L199.008 169.137C199.008 169.371 198.851 169.528 198.695 169.684L198.226 169.997C198.069 170.153 197.991 170.232 197.991 170.466 197.991 170.701 198.069 170.779 198.226 170.935L198.695 171.248C198.929 171.405 199.008 171.639 199.008 171.795L199.008 181.805C199.008 182.117 199.242 182.352 199.555 182.352L203.934 182.352C204.247 182.352 204.481 182.117 204.481 181.805L204.481 173.907C204.481 173.594 204.716 173.359 205.029 173.359L209.408 173.359C209.798 173.359 210.189 173.438 210.424 173.75L214.725 178.911C217.305 182.117 220.12 182.586 224.186 182.586ZM172.734 178.755C167.026 178.755 163.272 175.705 163.272 171.014 163.272 166.165 167.104 162.959 172.734 162.959 178.52 162.959 182.352 166.165 182.195 171.014 182.039 175.705 178.286 178.755 172.734 178.755ZM136.295 182.352 140.752 182.352C141.065 182.352 141.299 182.117 141.299 181.805L141.299 171.795C141.299 171.561 141.456 171.405 141.612 171.248L142.081 170.935C142.238 170.779 142.316 170.701 142.316 170.466 142.316 170.232 142.238 170.153 142.081 169.997L141.612 169.684C141.377 169.528 141.299 169.293 141.299 169.137L141.299 163.898C141.299 163.585 141.534 163.35 141.847 163.35L150.761 163.35C151.152 163.35 151.308 163.116 151.23 162.725L150.37 159.832C150.292 159.519 150.057 159.362 149.744 159.362L127.224 159.362C126.911 159.362 126.677 159.519 126.598 159.832L125.738 162.725C125.582 163.116 125.817 163.35 126.208 163.35L135.122 163.35C135.435 163.35 135.669 163.585 135.669 163.898L135.669 169.137C135.669 169.371 135.513 169.528 135.356 169.684L134.887 169.997C134.731 170.153 134.653 170.232 134.653 170.466 134.653 170.701 134.731 170.779 134.887 170.935L135.356 171.248C135.591 171.405 135.669 171.639 135.669 171.795L135.669 181.805C135.747 182.195 135.982 182.352 136.295 182.352ZM108.301 182.821C112.367 182.821 116.199 181.883 118.857 179.928 119.092 179.771 119.092 179.537 118.857 179.224L116.902 176.8C116.668 176.565 116.433 176.487 116.12 176.644 114.165 177.973 111.507 178.598 108.614 178.598 102.28 178.598 98.6827 175.627 98.6045 170.935 98.5263 166.087 102.201 162.959 108.614 162.959 111.35 162.959 113.931 163.741 115.729 164.992 115.964 165.149 116.277 165.149 116.511 164.914L118.544 162.49C118.779 162.177 118.779 161.943 118.466 161.708 115.808 159.832 112.132 158.815 108.692 158.815 100.325 158.815 94.4602 163.038 93.2872 168.824 93.209 169.137 93.1308 169.371 92.818 169.528L92.3489 169.841C92.1925 169.997 92.1143 170.075 92.1143 170.31 92.1143 170.544 92.1925 170.623 92.3489 170.779L92.818 171.092C93.0526 171.248 93.1308 171.483 93.209 171.795 93.6782 178.833 99.1519 182.821 108.301 182.821ZM65.8406 173.75C65.4496 173.75 65.215 173.516 65.4496 173.125L70.2196 164.602C70.4541 164.211 70.7669 164.211 70.9233 164.602L75.615 173.125C75.8496 173.516 75.615 173.672 75.2241 173.672L65.8406 173.672 65.8406 173.75ZM55.2842 182.352 59.8977 182.352C60.2105 182.352 60.3669 182.195 60.5233 181.961L62.5564 178.286C62.7128 178.051 62.9474 177.817 63.2602 177.817L77.7263 177.817C78.0391 177.817 78.2737 177.973 78.4301 178.286L80.4632 181.961C80.6195 182.195 80.7759 182.352 81.0887 182.352L85.9368 182.352C86.3278 182.352 86.4842 182.117 86.3278 181.726L80.6977 172.03C80.5414 171.795 80.5414 171.483 80.6195 171.248L80.8541 170.701C80.9323 170.466 80.8541 170.31 80.7759 170.153 80.6195 169.997 80.5414 169.919 80.3068 169.919L79.8376 169.919C79.603 169.919 79.4466 169.919 79.2902 169.606L73.582 159.753C73.4256 159.519 73.2692 159.362 72.9564 159.362L68.2647 159.362C67.9519 159.362 67.7955 159.519 67.6391 159.753L61.8526 169.684C61.6962 169.919 61.5398 169.919 61.3053 169.919L60.8361 169.919C60.6015 169.919 60.5233 169.997 60.3669 170.153 60.2887 170.31 60.2105 170.466 60.2887 170.701L60.5233 171.248C60.6015 171.483 60.6797 171.717 60.5233 171.874L54.8932 181.648C54.7368 182.117 54.815 182.352 55.2842 182.352ZM30.1053 182.352 34.5624 182.352C34.8752 182.352 35.1098 182.117 35.1098 181.805L35.1098 173.594C35.1098 173.281 35.3444 173.047 35.6571 173.047L43.6331 173.047C43.9459 173.047 44.1805 172.89 44.2586 172.577L45.197 169.528C45.3534 169.137 45.1188 168.902 44.7278 168.902L35.6571 168.902C35.3444 168.902 35.1098 168.668 35.1098 168.355L35.1098 164.054C35.1098 163.741 35.3444 163.507 35.6571 163.507L51.4526 163.507C51.8436 163.507 52 163.272 51.9218 162.881L51.1399 159.832C51.0617 159.519 50.8271 159.362 50.5143 159.362L30.1053 159.362C29.7925 159.362 29.5579 159.597 29.5579 159.91L29.5579 169.137C29.5579 169.371 29.4015 169.528 29.2451 169.684L28.7759 169.997C28.6195 170.153 28.5414 170.232 28.5414 170.466 28.5414 170.701 28.6195 170.779 28.7759 170.935L29.2451 171.248C29.4797 171.405 29.5579 171.639 29.5579 171.795L29.5579 181.805C29.5579 182.195 29.7925 182.352 30.1053 182.352ZM8.05414 174.689 8.6797 174.689C9.07068 172.812 12.5895 171.405 16.7338 171.248L16.7338 170.544C12.5895 170.388 9.07068 169.059 8.6797 167.104L8.05414 167.104C7.66316 169.059 4.14436 170.388 0 170.544L0 171.248C4.14436 171.405 7.66316 172.812 8.05414 174.689ZM172.734 182.821C180.788 182.821 187.044 178.833 187.747 172.03 187.747 171.717 187.904 171.483 188.138 171.326L188.608 171.014C188.764 170.857 188.842 170.779 188.842 170.544 188.842 170.31 188.764 170.232 188.608 170.075L188.138 169.762C187.904 169.606 187.747 169.45 187.669 169.137 186.731 163.35 180.944 159.05 172.812 159.05 164.836 159.05 159.128 163.038 157.877 169.137 157.798 169.45 157.642 169.684 157.486 169.762L157.017 170.075C156.86 170.232 156.782 170.31 156.782 170.544 156.782 170.779 156.86 170.857 157.017 171.014L157.486 171.326C157.72 171.483 157.798 171.795 157.877 172.03 158.424 179.068 164.445 182.821 172.734 182.821Z" fill="#333333" transform="matrix(1.00583 0 0 1 407 252)"/></g></g></g></g></g></svg>