<svg width="222" height="119" xmlns="http://www.w3.org/2000/svg" xmlns:xlink="http://www.w3.org/1999/xlink" overflow="hidden"><defs><clipPath id="clip0"><path d="M179 119 401 119 401 238 179 238Z" fill-rule="evenodd" clip-rule="evenodd"/></clipPath><clipPath id="clip1"><path d="M232 150 348 150 348 206 232 206Z" fill-rule="evenodd" clip-rule="evenodd"/></clipPath><clipPath id="clip2"><path d="M232 150 348 150 348 206 232 206Z" fill-rule="evenodd" clip-rule="evenodd"/></clipPath><clipPath id="clip3"><path d="M184 75 393 75 393 280 184 280Z" fill-rule="evenodd" clip-rule="evenodd"/></clipPath></defs><g clip-path="url(#clip0)" transform="translate(-179 -119)"><rect x="179" y="120" width="222" height="117" fill="#FFFFFF"/><g clip-path="url(#clip1)"><g clip-path="url(#clip2)"><g clip-path="url(#clip3)"><path d="M0 0 204.119 0 204.119 204.119 0 204.119Z" fill="#FFFFFF" transform="matrix(1.0216 0 -0 1 184.351 75.1231)"/><path d="M70.1326 125.111 65.6893 125.111C63.8752 125.111 62.135 124.391 60.8513 123.109 59.5676 121.826 58.8455 120.086 58.8436 118.271L58.8436 85.7728C58.8465 83.9592 59.568 82.2211 60.8498 80.9394 62.1316 79.6571 63.8693 78.9353 65.6822 78.9327L70.1248 78.9327C71.0248 78.9307 71.9156 79.1069 72.7473 79.4496 73.579 79.793 74.3346 80.2963 74.9719 80.9316 75.6085 81.5662 76.1144 82.3212 76.4604 83.1516 76.8056 83.9826 76.9845 84.8729 76.9858 85.7728L76.9858 118.271C76.9851 119.17 76.8069 120.061 76.4617 120.891 76.117 121.722 75.6118 122.476 74.9751 123.111 74.3392 123.746 73.5836 124.25 72.7532 124.593 71.9221 124.936 71.0313 125.112 70.1326 125.111L70.1326 125.111ZM65.6893 83.2615C65.026 83.2628 64.39 83.5268 63.9208 83.9963 63.4516 84.4651 63.1876 85.1018 63.1866 85.765L63.1866 118.263C63.1866 118.927 63.4503 119.565 63.9197 120.034 64.3891 120.504 65.0257 120.767 65.6893 120.767L70.1326 120.767C70.7965 120.767 71.4338 120.504 71.9033 120.034 72.3734 119.565 72.6381 118.928 72.6394 118.263L72.6394 85.7728C72.6374 85.1089 72.3721 84.4723 71.9026 84.0034 71.4325 83.534 70.7965 83.27 70.1326 83.2693L65.6893 83.2615Z" transform="matrix(1.0216 0 -0 1 184.351 75.1231)"/><path d="M92.9615 125.111 88.2894 125.111C84.5055 125.111 81.3101 121.982 81.3101 118.278L81.3101 109.201 85.6454 109.201 85.6454 118.278C85.6454 119.608 86.8822 120.775 88.2894 120.775L92.9615 120.775C93.6326 120.775 94.2777 120.515 94.7615 120.05 95.2446 119.584 95.5288 118.949 95.5535 118.278L95.5535 106.594C95.5268 105.932 95.2388 105.308 94.753 104.858 94.2679 104.407 93.6235 104.167 92.9615 104.19L88.2894 104.19C86.4491 104.176 84.6875 103.441 83.3831 102.143 82.0787 100.845 81.3341 99.0871 81.3101 97.2461L81.3101 85.5654C81.3101 81.9063 84.4424 78.9327 88.2894 78.9327L92.9615 78.9327C96.8456 78.9327 99.8895 81.8472 99.8895 85.5654L99.8895 94.398 95.5535 94.398 95.5535 85.5654C95.5535 84.1283 94.2354 83.2693 92.9615 83.2693L88.2894 83.2693C86.9895 83.2693 85.6454 84.1283 85.6454 85.5654L85.6454 97.2461C85.6792 97.9322 85.9699 98.5798 86.4595 99.0604 86.9498 99.5409 87.6033 99.8186 88.2894 99.8388L92.9615 99.8388C96.7793 99.8388 99.8895 102.864 99.8895 106.579L99.8895 118.263C99.8771 120.09 99.141 121.837 97.8424 123.122 96.5432 124.405 94.7881 125.121 92.9615 125.111L92.9615 125.111Z" transform="matrix(1.0216 0 -0 1 184.351 75.1231)"/><path d="M108.561 125.111 104.225 125.111 104.225 85.5654C104.225 81.7841 107.109 78.9327 110.938 78.9327L115.61 78.9327C116.491 78.9151 117.367 79.0744 118.185 79.4002 119.004 79.726 119.75 80.2117 120.378 80.8295 121.006 81.4473 121.505 82.1847 121.845 82.9981 122.185 83.811 122.358 84.6843 122.356 85.5654L122.356 106.475C122.356 110.371 119.331 113.538 115.61 113.538L108.576 113.538 108.561 125.111ZM108.561 109.186 115.595 109.186C116.88 109.186 118.006 107.912 118.006 106.46L118.006 85.5654C118.006 84.2135 117.014 83.2693 115.595 83.2693L110.938 83.2693C110.627 83.2472 110.315 83.2908 110.022 83.3974 109.729 83.5041 109.462 83.6705 109.238 83.8877 109.013 84.1042 108.837 84.365 108.721 84.6544 108.604 84.9437 108.55 85.2539 108.561 85.5654L108.561 109.186Z" transform="matrix(1.0216 0 -0 1 184.351 75.1231)"/><path d="M145.267 125.111 140.931 125.111 140.931 113.538 131.042 113.538 131.042 125.111 126.692 125.111 126.692 85.5654C126.692 81.8621 129.72 78.9327 133.59 78.9327L138.262 78.9327C142.124 78.9327 145.267 81.8953 145.267 85.5654L145.267 125.111ZM131.028 109.186 140.931 109.186 140.931 85.5654C140.931 84.1472 139.547 83.2693 138.262 83.2693L133.59 83.2693C132.13 83.2693 131.028 84.2544 131.028 85.5654L131.028 109.186Z" transform="matrix(1.0216 0 -0 1 184.351 75.1231)"/></g></g></g></g></svg>