<svg width="122" height="121" xmlns="http://www.w3.org/2000/svg" xmlns:xlink="http://www.w3.org/1999/xlink" overflow="hidden"><defs><clipPath id="clip0"><path d="M76 1582 198 1582 198 1703 76 1703Z" fill-rule="evenodd" clip-rule="evenodd"/></clipPath><clipPath id="clip1"><path d="M77 1582 197 1582 197 1702 77 1702Z" fill-rule="evenodd" clip-rule="evenodd"/></clipPath><clipPath id="clip2"><path d="M77 1582 197 1582 197 1702 77 1702Z" fill-rule="evenodd" clip-rule="evenodd"/></clipPath><clipPath id="clip3"><path d="M77 1582 197 1582 197 1702 77 1702Z" fill-rule="evenodd" clip-rule="evenodd"/></clipPath></defs><g clip-path="url(#clip0)" transform="translate(-76 -1582)"><g clip-path="url(#clip1)"><g clip-path="url(#clip2)"><g clip-path="url(#clip3)"><path d="M183.455 1643.3C186.457 1643.3 188.25 1640.15 188.25 1634.88 188.25 1626.68 183.746 1614.55 174.08 1614.55L154.826 1614.55C154.001 1614 153.049 1613.66 152.058 1613.58 151.369 1612.33 150.262 1611.38 148.934 1610.87 147.736 1610.41 146.422 1610.33 145.176 1610.64 144.15 1609.9 142.916 1609.5 141.65 1609.5 140.23 1609.5 138.852 1609.98 137.745 1610.87 135.063 1610.11 132.206 1611.25 130.781 1613.65 129.968 1613.79 129.192 1614.1 128.499 1614.55L99.0801 1614.55C92.0707 1614.55 86.5801 1623.34 86.5801 1634.55 86.5801 1645.72 92.0269 1654.47 98.9948 1654.55L128.455 1654.55 128.455 1674.55 140.955 1664.87 153.455 1674.55 153.455 1654.55 182.83 1654.55C183.521 1654.55 184.08 1653.99 184.08 1653.3 184.08 1652.61 183.521 1652.05 182.83 1652.05 178.52 1652.21 174.889 1648.86 174.705 1644.55L174.705 1643.3ZM132.455 1616.01 132.755 1615.29C133.116 1614.45 133.786 1613.79 134.625 1613.44 135.561 1613.03 136.625 1613.03 137.558 1613.45L138.362 1613.79 138.957 1613.15C140.348 1611.7 142.645 1611.63 144.124 1612.99L144.705 1613.49 145.413 1613.19C146.257 1612.86 147.195 1612.87 148.036 1613.21 148.982 1613.55 149.729 1614.3 150.078 1615.24L150.395 1616.1 151.311 1616.06C152.332 1615.99 153.333 1616.37 154.04 1617.11 154.678 1617.76 155.054 1618.61 155.094 1619.52L155.138 1620.31 155.866 1620.61C156.7 1620.97 157.363 1621.64 157.715 1622.47 158.122 1623.41 158.117 1624.47 157.702 1625.41L157.365 1626.21 158.002 1626.81C158.745 1627.5 159.161 1628.48 159.15 1629.5 159.15 1630.4 158.808 1631.28 158.193 1631.94L157.652 1632.52 157.956 1633.26C158.285 1634.11 158.281 1635.04 157.943 1635.88 157.598 1636.83 156.854 1637.58 155.909 1637.93L155.049 1638.24 155.092 1639.16C155.159 1640.18 154.774 1641.18 154.039 1641.89 153.394 1642.52 152.537 1642.9 151.633 1642.94L150.846 1642.99 150.546 1643.71C150.185 1644.55 149.515 1645.21 148.676 1645.56 147.74 1645.97 146.676 1645.97 145.743 1645.55L144.94 1645.21 144.345 1645.85C142.953 1647.3 140.656 1647.37 139.177 1646.01L138.596 1645.51 137.888 1645.8C137.044 1646.14 136.106 1646.13 135.265 1645.79 134.319 1645.45 133.572 1644.7 133.223 1643.76L132.906 1642.9 131.99 1642.94C130.97 1643.01 129.971 1642.62 129.261 1641.89 128.623 1641.24 128.247 1640.39 128.208 1639.48L128.164 1638.69 127.435 1638.39C126.601 1638.03 125.939 1637.36 125.587 1636.52 125.179 1635.59 125.183 1634.52 125.598 1633.59L125.937 1632.79 125.299 1632.19C124.556 1631.5 124.139 1630.52 124.15 1629.5 124.166 1628.58 124.518 1627.7 125.138 1627.03L125.636 1626.45 125.345 1625.74C125.015 1624.89 125.02 1623.96 125.358 1623.12 125.703 1622.17 126.447 1621.42 127.391 1621.07L128.252 1620.76 128.209 1619.84C128.142 1618.82 128.527 1617.82 129.262 1617.11 129.907 1616.47 130.764 1616.1 131.668 1616.06ZM126.278 1617.05C125.973 1617.69 125.787 1618.38 125.727 1619.09 124.485 1619.78 123.527 1620.89 123.024 1622.22 122.557 1623.41 122.477 1624.73 122.795 1625.97 122.052 1627 121.652 1628.23 121.65 1629.5 121.648 1630.92 122.132 1632.3 123.02 1633.41 122.622 1634.78 122.722 1636.24 123.305 1637.55 123.816 1638.73 124.689 1639.71 125.797 1640.37 125.823 1640.52 125.871 1640.66 125.908 1640.8L108.625 1640.8C110.166 1638.61 110.981 1635.99 110.955 1633.3 110.955 1626 108.81 1620.17 105.341 1617.05ZM99.0805 1652.05C93.6599 1652.05 89.0805 1644.04 89.0805 1634.55 89.0805 1625.07 93.6599 1617.05 99.0805 1617.05 104.601 1617.05 108.455 1623.74 108.455 1633.3 108.454 1633.61 108.376 1640.8 103.455 1640.8 100.745 1640.8 98.4555 1637.08 98.4555 1632.68 98.4536 1631.77 98.5514 1630.86 98.7473 1629.97 98.8976 1629.3 98.4733 1628.63 97.7994 1628.48 97.1255 1628.33 96.4574 1628.76 96.307 1629.43 96.0715 1630.5 95.9536 1631.59 95.9555 1632.68 95.9555 1638.64 99.2501 1643.3 103.455 1643.3L127.191 1643.3C127.292 1643.42 127.383 1643.55 127.494 1643.66 127.788 1643.95 128.11 1644.21 128.455 1644.44L128.455 1652.05ZM142.487 1662.89 140.956 1661.7 139.424 1662.89 130.956 1669.45 130.956 1645.37C131.053 1645.39 131.145 1645.42 131.243 1645.42 131.932 1646.67 133.039 1647.62 134.367 1648.13 135.565 1648.59 136.879 1648.67 138.124 1648.36 139.15 1649.1 140.384 1649.5 141.65 1649.5 143.07 1649.5 144.448 1649.02 145.556 1648.13 146.926 1648.53 148.393 1648.43 149.696 1647.85 150.144 1647.64 150.566 1647.39 150.955 1647.08L150.955 1669.45ZM175.826 1652.05 153.455 1652.05 153.455 1645.11C154.341 1644.81 155.146 1644.32 155.807 1643.66 155.919 1643.54 156.005 1643.42 156.107 1643.3L172.205 1643.3 172.205 1644.55C172.227 1647.47 173.556 1650.22 175.826 1652.05ZM157.419 1640.8C157.493 1640.51 157.545 1640.21 157.575 1639.91 158.817 1639.22 159.775 1638.11 160.277 1636.78 160.743 1635.59 160.825 1634.28 160.512 1633.04 161.253 1632.01 161.651 1630.77 161.65 1629.5 161.652 1628.08 161.169 1626.7 160.28 1625.59 161.038 1622.91 159.899 1620.06 157.503 1618.63 157.404 1618.09 157.232 1617.55 156.992 1617.05L174.079 1617.05C181.695 1617.05 185.75 1627.41 185.75 1634.88 185.75 1638.37 184.806 1640.8 183.455 1640.8Z" fill="#5681B2"/><path d="M141.376 1641.72C148.124 1641.72 153.594 1636.25 153.594 1629.5 153.594 1622.75 148.124 1617.28 141.376 1617.28 134.628 1617.28 129.158 1622.75 129.158 1629.5 129.165 1636.24 134.631 1641.71 141.376 1641.72ZM141.376 1619.78C146.743 1619.78 151.094 1624.13 151.094 1629.5 151.094 1634.87 146.743 1639.22 141.376 1639.22 136.008 1639.22 131.658 1634.87 131.658 1629.5 131.664 1624.14 136.011 1619.79 141.376 1619.78Z" fill="#5681B2"/></g></g></g></g></svg>