<svg width="121" height="121" xmlns="http://www.w3.org/2000/svg" xmlns:xlink="http://www.w3.org/1999/xlink" overflow="hidden"><defs><clipPath id="clip0"><path d="M664 1816 785 1816 785 1937 664 1937Z" fill-rule="evenodd" clip-rule="evenodd"/></clipPath><clipPath id="clip1"><path d="M664 1816 784 1816 784 1936 664 1936Z" fill-rule="evenodd" clip-rule="evenodd"/></clipPath><clipPath id="clip2"><path d="M664 1816 784 1816 784 1936 664 1936Z" fill-rule="evenodd" clip-rule="evenodd"/></clipPath><clipPath id="clip3"><path d="M664 1816 784 1816 784 1936 664 1936Z" fill-rule="evenodd" clip-rule="evenodd"/></clipPath></defs><g clip-path="url(#clip0)" transform="translate(-664 -1816)"><g clip-path="url(#clip1)"><g clip-path="url(#clip2)"><g clip-path="url(#clip3)"><path d="M740.339 1889.53C741.664 1886.83 744.789 1880.78 747.651 1877.66 749.974 1875.04 751.811 1872.03 753.076 1868.77 754.402 1865.31 755.137 1861.65 755.25 1857.95L755.25 1856.88C755.25 1839.62 741.259 1825.63 724 1825.63 706.741 1825.63 692.75 1839.62 692.75 1856.88L692.75 1857.95C692.864 1861.65 693.599 1865.31 694.925 1868.77 696.19 1872.03 698.027 1875.04 700.35 1877.66 703.213 1880.77 706.338 1886.83 707.662 1889.53 708.066 1890.34 708.894 1890.86 709.801 1890.86L738.2 1890.86C739.107 1890.86 739.936 1890.34 740.339 1889.53ZM738.125 1888.36 709.875 1888.36C708.263 1885.08 705.156 1879.18 702.224 1875.99 700.099 1873.6 698.419 1870.85 697.263 1867.87 696.039 1864.68 695.359 1861.32 695.25 1857.91L695.25 1856.92C695.238 1841.04 708.101 1828.16 723.979 1828.15 739.857 1828.13 752.738 1841 752.75 1856.88L752.75 1857.91C752.643 1861.32 751.964 1864.68 750.744 1867.86 749.594 1870.84 747.922 1873.58 745.806 1875.97 742.833 1879.21 739.729 1885.1 738.125 1888.36Z" fill="#5681B2"/><path d="M737.948 1898.43 710.448 1898.43C709.757 1898.43 709.198 1898.99 709.198 1899.68 709.198 1900.37 709.757 1900.93 710.448 1900.93L737.948 1900.93C738.638 1900.93 739.198 1900.37 739.198 1899.68 739.198 1898.99 738.638 1898.43 737.948 1898.43Z" fill="#5681B2"/><path d="M739.198 1909.84C739.198 1909.15 738.638 1908.59 737.948 1908.59L710.448 1908.59C709.757 1908.59 709.198 1909.15 709.198 1909.84 709.198 1910.53 709.757 1911.09 710.448 1911.09L737.948 1911.09C738.638 1911.09 739.198 1910.53 739.198 1909.84Z" fill="#5681B2"/><path d="M731.25 1919.85C731.305 1919.16 730.792 1918.56 730.104 1918.5 730.069 1918.5 730.035 1918.5 730 1918.5L718.057 1918.5C717.367 1918.5 716.806 1919.06 716.803 1919.75 716.803 1919.78 716.805 1919.82 716.807 1919.85 717.122 1923.84 720.61 1926.82 724.598 1926.5 728.148 1926.22 730.967 1923.4 731.247 1919.85ZM724.037 1924.02C722.089 1924 720.345 1922.81 719.625 1921L728.451 1921C727.734 1922.81 725.988 1924.01 724.039 1924.02Z" fill="#5681B2"/></g></g></g></g></svg>