<svg width="121" height="122" xmlns="http://www.w3.org/2000/svg" xmlns:xlink="http://www.w3.org/1999/xlink" overflow="hidden"><defs><clipPath id="clip0"><path d="M664 2024 785 2024 785 2146 664 2146Z" fill-rule="evenodd" clip-rule="evenodd"/></clipPath><clipPath id="clip1"><path d="M664 2025 784 2025 784 2145 664 2145Z" fill-rule="evenodd" clip-rule="evenodd"/></clipPath><clipPath id="clip2"><path d="M664 2025 784 2025 784 2145 664 2145Z" fill-rule="evenodd" clip-rule="evenodd"/></clipPath><clipPath id="clip3"><path d="M664 2025 784 2025 784 2145 664 2145Z" fill-rule="evenodd" clip-rule="evenodd"/></clipPath></defs><g clip-path="url(#clip0)" transform="translate(-664 -2024)"><g clip-path="url(#clip1)"><g clip-path="url(#clip2)"><g clip-path="url(#clip3)"><path d="M720.25 2056.25 749 2056.25 749 2058.75 720.25 2058.75Z" fill="#5681B2"/><path d="M720.25 2075 749 2075 749 2077.5 720.25 2077.5Z" fill="#5681B2"/><path d="M720.25 2093.75 749 2093.75 749 2096.25 720.25 2096.25Z" fill="#5681B2"/><path d="M720.25 2112.5 749 2112.5 749 2115 720.25 2115Z" fill="#5681B2"/><path d="M686.5 2135 761.5 2135 761.5 2035 686.5 2035ZM689 2037.5 759 2037.5 759 2132.5 689 2132.5Z" fill="#5681B2"/><path d="M699 2063.13 710.25 2063.13 710.25 2051.88 699 2051.88ZM701.5 2054.38 707.75 2054.38 707.75 2060.63 701.5 2060.63Z" fill="#5681B2"/><path d="M699 2081.88 710.25 2081.88 710.25 2070.63 699 2070.63ZM701.5 2073.13 707.75 2073.13 707.75 2079.38 701.5 2079.38Z" fill="#5681B2"/><path d="M699 2100.63 710.25 2100.63 710.25 2089.38 699 2089.38ZM701.5 2091.88 707.75 2091.88 707.75 2098.13 701.5 2098.13Z" fill="#5681B2"/><path d="M699 2119.38 710.25 2119.38 710.25 2108.13 699 2108.13ZM701.5 2110.63 707.75 2110.63 707.75 2116.88 701.5 2116.88Z" fill="#5681B2"/></g></g></g></g></svg>