<svg width="122" height="121" xmlns="http://www.w3.org/2000/svg" xmlns:xlink="http://www.w3.org/1999/xlink" overflow="hidden"><defs><clipPath id="clip0"><path d="M76 1800 198 1800 198 1921 76 1921Z" fill-rule="evenodd" clip-rule="evenodd"/></clipPath><clipPath id="clip1"><path d="M77 1800 197 1800 197 1920 77 1920Z" fill-rule="evenodd" clip-rule="evenodd"/></clipPath><clipPath id="clip2"><path d="M77 1800 197 1800 197 1920 77 1920Z" fill-rule="evenodd" clip-rule="evenodd"/></clipPath><clipPath id="clip3"><path d="M77 1800 197 1800 197 1920 77 1920Z" fill-rule="evenodd" clip-rule="evenodd"/></clipPath></defs><g clip-path="url(#clip0)" transform="translate(-76 -1800)"><g clip-path="url(#clip1)"><g clip-path="url(#clip2)"><g clip-path="url(#clip3)"><path d="M137 1843.76C138.381 1843.76 139.5 1842.64 139.5 1841.26 139.5 1839.88 138.381 1838.76 137 1838.76 135.619 1838.76 134.5 1839.88 134.5 1841.26 134.5 1842.64 135.619 1843.76 137 1843.76Z" fill="#5681B2"/><path d="M137 1888.78C135.619 1888.78 134.5 1889.89 134.5 1891.28 134.5 1892.66 135.619 1893.78 137 1893.78 138.381 1893.78 139.5 1892.66 139.5 1891.28 139.5 1889.89 138.381 1888.78 137 1888.78Z" fill="#5681B2"/><path d="M162 1862.52C160.619 1862.52 159.5 1863.64 159.5 1865.02 159.5 1866.4 160.619 1867.52 162 1867.52 163.381 1867.52 164.5 1866.4 164.5 1865.02 164.5 1863.64 163.381 1862.52 162 1862.52Z" fill="#5681B2"/><path d="M112 1862.52C110.619 1862.52 109.5 1863.64 109.5 1865.02 109.5 1866.4 110.619 1867.52 112 1867.52 113.381 1867.52 114.5 1866.4 114.5 1865.02 114.5 1863.64 113.381 1862.52 112 1862.52Z" fill="#5681B2"/><path d="M138.25 1847.5 135.75 1847.5 135.75 1865.52 148.616 1878.38 150.384 1876.62 138.25 1864.48 138.25 1847.5Z" fill="#5681B2"/><path d="M163.82 1834.95 169.134 1829.63C169.613 1829.14 169.6 1828.35 169.103 1827.87 168.619 1827.4 167.851 1827.4 167.366 1827.87L161.866 1833.37C155.055 1828.19 146.798 1825.28 138.25 1825.03L138.25 1817.5 150.75 1817.5 150.75 1815 123.25 1815 123.25 1817.5 135.75 1817.5 135.75 1825.03C112.952 1825.7 95.0104 1844.72 95.6754 1867.51 96.3404 1890.31 115.361 1908.25 138.158 1907.59 160.956 1906.92 178.898 1887.9 178.233 1865.11 177.893 1853.47 172.66 1842.52 163.82 1834.95ZM137 1905C115.599 1905 98.25 1887.65 98.25 1866.25 98.25 1844.85 115.599 1827.5 137 1827.5 158.401 1827.5 175.75 1844.85 175.75 1866.25 175.725 1887.64 158.391 1904.98 137 1905Z" fill="#5681B2"/></g></g></g></g></svg>