<svg width="122" height="121" xmlns="http://www.w3.org/2000/svg" xmlns:xlink="http://www.w3.org/1999/xlink" overflow="hidden"><defs><clipPath id="clip0"><path d="M76 2029 198 2029 198 2150 76 2150Z" fill-rule="evenodd" clip-rule="evenodd"/></clipPath><clipPath id="clip1"><path d="M77 2030 197 2030 197 2150 77 2150Z" fill-rule="evenodd" clip-rule="evenodd"/></clipPath><clipPath id="clip2"><path d="M77 2030 197 2030 197 2150 77 2150Z" fill-rule="evenodd" clip-rule="evenodd"/></clipPath><clipPath id="clip3"><path d="M77 2030 197 2030 197 2150 77 2150Z" fill-rule="evenodd" clip-rule="evenodd"/></clipPath></defs><g clip-path="url(#clip0)" transform="translate(-76 -2029)"><g clip-path="url(#clip1)"><g clip-path="url(#clip2)"><g clip-path="url(#clip3)"><path d="M175.25 2053.76C176.25 2053.79 177.032 2054.63 177 2055.63L177 2107.27C176.975 2108.23 176.206 2109 175.25 2109.02L160 2109.02 160 2122.65 147.29 2109.65 146.555 2108.9 98.75 2108.9C97.8045 2108.92 97.021 2108.17 97 2107.23 96.9995 2107.2 96.9995 2107.18 97 2107.15L97 2055.51C97.025 2054.55 97.794 2053.78 98.75 2053.76L175.25 2053.76M175.25 2051.26 98.75 2051.26C96.413 2051.28 94.5244 2053.17 94.5 2055.51L94.5 2107.15C94.4806 2109.47 96.3519 2111.38 98.6797 2111.4 98.7031 2111.4 98.7266 2111.4 98.75 2111.4L145.5 2111.4 162.5 2128.77 162.5 2111.52 175.25 2111.52C177.587 2111.5 179.476 2109.61 179.5 2107.27L179.5 2055.63C179.529 2053.25 177.63 2051.3 175.25 2051.26Z" fill="#5681B2"/></g></g></g></g></svg>