<svg width="121" height="121" xmlns="http://www.w3.org/2000/svg" xmlns:xlink="http://www.w3.org/1999/xlink" overflow="hidden"><defs><clipPath id="clip0"><path d="M664 1568 785 1568 785 1689 664 1689Z" fill-rule="evenodd" clip-rule="evenodd"/></clipPath><clipPath id="clip1"><path d="M664 1568 784 1568 784 1688 664 1688Z" fill-rule="evenodd" clip-rule="evenodd"/></clipPath><clipPath id="clip2"><path d="M664 1568 784 1568 784 1688 664 1688Z" fill-rule="evenodd" clip-rule="evenodd"/></clipPath><clipPath id="clip3"><path d="M664 1568 784 1568 784 1688 664 1688Z" fill-rule="evenodd" clip-rule="evenodd"/></clipPath></defs><g clip-path="url(#clip0)" transform="translate(-664 -1568)"><g clip-path="url(#clip1)"><g clip-path="url(#clip2)"><g clip-path="url(#clip3)"><path d="M689.002 1657.9C690.266 1657.97 693.953 1658 693.953 1658L761.505 1658C769.82 1657.97 776.533 1651.2 776.5 1642.89 776.468 1634.67 769.849 1627.99 761.63 1627.89L760.38 1627.89C760.369 1621.83 757.437 1616.16 752.505 1612.64 747.509 1609.14 741.138 1608.26 735.38 1610.26 729.725 1599.21 716.179 1594.83 705.123 1600.48 697.642 1604.31 692.919 1611.99 692.877 1620.39L692.877 1620.64C691.897 1620.48 690.905 1620.4 689.911 1620.4 679.536 1620.39 671.116 1628.79 671.104 1639.16 671.101 1641.92 671.706 1644.65 672.876 1647.15 675.913 1653.38 682.078 1657.49 689.002 1657.9ZM676.874 1629.4C679.993 1625.34 684.798 1622.95 689.91 1622.9 690.768 1622.9 691.625 1622.97 692.473 1623.11L695.377 1623.58 695.377 1620.39C695.444 1609.35 704.448 1600.46 715.487 1600.53 722.944 1600.57 729.756 1604.77 733.155 1611.4L734.148 1613.34 736.201 1612.62C744.635 1609.61 753.918 1614 756.933 1622.44 757.56 1624.19 757.88 1626.03 757.88 1627.89L757.88 1630.39 761.63 1630.39C768.563 1630.49 774.101 1636.2 773.999 1643.13 773.898 1649.97 768.344 1655.47 761.505 1655.5L691.365 1655.5 689.138 1655.4C680.176 1655.02 673.225 1647.44 673.612 1638.48 673.753 1635.19 674.891 1632.02 676.873 1629.4Z" fill="#5681B2"/></g></g></g></g></svg>